<svg width="113" height="137" viewBox="0 0 113 137" fill="none" xmlns="http://www.w3.org/2000/svg">
<path d="M57.99 129.15C52.4807 133.183 52.7205 96.7999 49.6992 87.8401C49.8288 73.2208 13.8781 79.1734 7.23506 72.2898C55.7046 63.6077 48.0574 72.2881 55.359 18.0387C57.0827 12.0844 57.4418 27.8061 60.5733 45.8921C61.4702 50.96 61.8457 57.2299 63.2014 62.7848C75.2495 69.4403 91.3022 68.3894 104.758 72.3138C94.6424 76.9223 78.0086 77.3544 65.8413 80.5964C58.9241 88.2653 58.3475 117.888 57.99 129.15C72.5037 75.0913 50.8285 87.2108 105.131 76.9412C119.481 63.8443 71.8349 65.3513 66.0037 60.8971C64.4618 50.3239 59.4307 14.9972 59.5796 16.1219C48.8455 -0.292426 49.1435 52.5134 45.9597 60.88C33.5243 64.2301 19.3413 65.6428 5.78399 68.9363C-3.79253 82.5767 38.393 79.9929 45.5456 84.2877C49.5994 92.608 48.6653 141.277 57.99 129.15Z" fill="#80191B"/>
<path d="M23.5682 50.1078C21.7253 52.1343 22.7265 47.3475 22.5179 46.2348C22.0859 30.6417 21.186 27.2419 6.81677 26.3281C11.3145 24.4816 19.1376 26.4087 20.7972 21.4761C21.7477 14.8171 22.3556 10.5858 22.7176 8.01752V8.02094L22.716 8.01924C24.0152 23.7204 24.6915 24.8811 38.6183 26.3315C38.587 26.3315 38.5707 26.3144 38.6124 26.3092C23.7649 25.7743 22.1052 35.5365 23.5682 50.1078C25.8208 44.6147 26.9486 38.8077 27.7814 32.135L27.774 32.1453C51.3875 29.445 51.2907 23.182 27.7725 20.5006C27.7755 20.5006 27.7784 20.504 27.7784 20.5075C25.8044 -2.55906 20.6542 -10.8022 17.6641 20.504L17.6656 20.4989C-5.43092 23.1049 -6.34125 29.3781 17.6641 32.1505C17.6641 32.1505 17.6567 32.1453 17.6582 32.1419C18.923 36.8344 19.1629 53.89 23.5682 50.1078Z" fill="#80191B"/>
<path d="M92.0188 136.552C90.2042 138.475 91.186 133.649 90.9358 132.559C90.8389 118.826 88.5193 113.501 75.5341 112.959C75.5787 112.961 75.5728 112.985 75.5371 112.983C79.8173 111.337 87.165 113.305 88.8485 108.688C89.5204 103.356 89.9361 100.049 90.4725 95.7851H90.4709V95.7885L90.4695 95.7868C91.8848 110.73 92.8099 112.117 106.032 113.713C105.995 113.713 105.996 113.691 106.035 113.689C89.9406 113.808 91.2263 121.074 92.0188 136.552C94.0941 131.186 95.1579 125.631 95.8492 119.153C95.8507 119.155 95.8477 119.16 95.8462 119.162C119.335 117.002 118.152 110.725 95.6659 107.733C93.4282 85.6937 88.2094 76.5624 85.7319 107.521L85.7333 107.516C62.3611 109.789 62.8081 115.687 85.9136 118.958L85.9062 118.948C87.5256 124.269 87.2589 139.17 92.0188 136.552Z" fill="#80191B"/>
<path d="M81.6082 35.9617C74.031 31.4235 74.3215 49.0054 81.6082 47.6733C88.8978 48.9969 89.1839 31.4235 81.6082 35.9617C84.0574 37.8442 85.4057 43.8723 81.6082 43.9666C77.8032 43.8689 79.1664 37.8493 81.6082 35.9617Z" fill="#80191B"/>
<path d="M88.1097 17.2377C80.3582 12.7766 85.4891 31.6084 91.5482 22.4891C94.5337 18.004 86.9968 12.7063 88.6684 19.3447C89.0364 19.8608 88.8159 21.1192 88.1097 21.0164C86.7495 20.4454 87.4691 19.1905 88.1097 17.2377Z" fill="#80191B"/>
<path d="M100.207 48.1192C97.767 44.6388 94.9736 50.5504 96.7703 53.3741C99.8333 59.1845 106.815 52.6334 103.267 47.8912C98.8545 44.476 101.922 51.315 100.207 51.8996C98.8456 51.3253 99.5652 50.072 100.207 48.1192Z" fill="#80191B"/>
<path d="M29.2219 93.1693C21.6448 88.6311 21.9353 106.213 29.2219 104.881C36.5116 106.203 36.7961 88.6293 29.2219 93.1693C31.6712 95.0518 33.0195 101.08 29.2219 101.174C25.4155 101.075 26.7786 95.0552 29.2219 93.1693Z" fill="#80191B"/>
<path d="M36.5875 111.138C34.1487 107.657 31.3538 113.569 33.1505 116.393C36.2135 122.203 43.1947 115.652 39.6475 110.91C35.2347 107.495 38.3023 114.334 36.5875 114.918C35.2258 114.346 35.9454 113.092 36.5875 111.138Z" fill="#80191B"/>
</svg>
