<svg width="287" height="99" viewBox="0 0 287 99" fill="none" xmlns="http://www.w3.org/2000/svg">
<path d="M281.545 36.8408C281.398 36.6737 281.241 36.5109 281.09 36.3455C277.977 30.416 272.466 25.2038 265.421 20.5728C260.021 17.0238 253.928 13.809 246.915 11.3798C239.833 8.92621 231.988 7.32835 223.988 6.24896C224.458 6.28591 224.927 6.32285 225.396 6.36004C227.621 6.53571 228.583 4.54632 226.336 4.36889C196.624 2.02062 166.734 -0.344993 136.679 0.0417781C110.918 0.37326 85.1073 2.84191 61.3721 8.87569C40.4553 14.193 20.4956 22.6213 9.41133 34.5335C-0.674118 45.3724 -3.37508 58.8303 4.86156 70.3691C13.3748 82.2954 32.2513 89.7227 52.7827 93.4587C65.7575 95.8198 79.267 96.9512 92.8621 97.4903C114.434 99.5895 136.72 99.1919 158.409 98.149C163.893 97.8851 169.405 97.5722 174.909 97.1819C185.94 96.6552 196.901 95.7836 207.698 94.3403C231.283 91.1881 255.616 85.0503 271.422 73.9513C286.053 63.6788 292.391 49.175 281.545 36.8408ZM261.9 74.1639C244.626 84.6333 220.392 90.1256 196.471 93.0541C189.715 93.8812 182.901 94.5183 176.057 95.0259C170.609 95.2958 165.157 95.4798 159.73 95.6049C146.285 95.9146 132.808 95.9399 119.354 95.8977C110.59 95.8703 101.819 95.7467 93.0746 95.3903C75.5225 93.6548 58.5025 90.2429 43.801 84.2207C34.8972 80.5734 27.0095 75.9357 21.6596 70.3723C16.2994 64.7987 13.9448 58.44 14.553 52.0687C15.8254 38.7398 29.2351 26.8433 47.3232 19.0795C66.5826 10.8128 90.3732 6.47037 113.982 5.10448C141.714 3.49985 169.686 5.83782 196.535 9.88622C218.498 13.1983 241.199 17.3641 259.611 25.3729C266.922 28.5528 273.407 32.4768 277.816 37.153C278.033 37.5744 278.241 37.9986 278.433 38.4271C281.209 44.6409 281.23 51.2484 278.408 57.4581C275.526 63.7995 269.668 69.456 261.9 74.1639ZM183.683 3.36515C185.867 3.49181 188.049 3.62752 190.231 3.767C188.887 4.15779 189.178 5.65536 191.096 5.7388C209.498 6.54099 229.343 7.60631 245.508 13.2945C252.189 15.6456 257.934 18.7415 263.087 22.1425C266.099 24.1304 268.796 26.2359 271.121 28.4628C260.196 21.8869 245.317 17.4103 231.033 14.095C219.108 11.327 206.725 9.22904 194.283 7.42285C180.26 5.38721 166.003 3.84968 151.608 3.07563C135.215 2.19402 118.531 2.35964 102.287 3.96076C129.117 1.21541 156.692 1.79921 183.683 3.36515ZM25.2144 82.8601C8.89729 75.0108 1.51752 63.0516 4.01802 50.8782C6.62606 38.1821 19.3178 27.3422 36.4518 19.691C52.7492 12.4132 72.2146 7.8335 92.1562 5.15626C85.5951 6.06475 79.1328 7.22682 72.8199 8.67112C50.8311 13.7022 30.4886 22.23 19.3935 34.6841C8.9601 46.3958 7.59908 60.6327 19.3824 72.1964C29.6653 82.2873 47.3042 89.2037 65.9696 93.3353C51.2122 91.555 36.8502 88.4573 25.2144 82.8601ZM275.289 67.154C278.516 63.8962 280.971 60.361 282.424 56.5524C282.504 56.345 282.572 56.1362 282.645 55.9281C282.476 56.4476 282.292 56.9655 282.078 57.4802C280.624 60.9632 278.294 64.1865 275.289 67.154Z" fill="white"/>
</svg>
