<svg width="236" height="25" viewBox="0 0 236 25" fill="none" xmlns="http://www.w3.org/2000/svg">
<path d="M235.717 0C235.314 0.732133 235.266 1.69573 234.453 2.1612C223.6 8.37561 211.583 13.4923 197.59 16.8067C160.727 25.5378 159.267 0.392859 119.997 15.2914C112.018 18.3185 101.987 26.2731 78.3668 21.2582C60.5691 17.4792 40.407 9.21745 10.3163 21.7788C0.818172 25.7439 3.62095 25.1275 0 24.6499C1.32941 20.7553 17.3909 14.0386 26.955 11.606C46.6349 6.60061 60.7337 10.0485 80.4442 15.0082C114.882 23.6737 117.998 -8.43808 169.784 9.59857C186.162 15.3028 195.952 11.3466 236 0.0558041L235.717 0Z" fill="#80191B"/>
</svg>
