<svg width="1440" height="473" viewBox="0 0 1440 473" fill="none" xmlns="http://www.w3.org/2000/svg">
<path d="M1440 430.677C1430.81 431.532 1399.38 434.023 1374.14 430.841C1373.2 430.723 1372.34 431.134 1372.17 431.754C1372 432.376 1372.61 432.974 1373.52 433.088C1398.84 436.284 1430.08 433.894 1440 432.984V435.81C1415.99 437.786 1292.41 445.274 1220.32 397.814C1245.34 401.397 1267.35 401.914 1282.03 399.004C1295.73 396.292 1303.72 390.84 1305.14 383.237C1307.22 372.134 1292.67 361.327 1266.21 354.325C1237.13 346.62 1199.87 345.497 1187.87 356.934C1179.82 364.6 1184.17 375.691 1200.78 389.944C1153.31 380.476 1099.38 360.94 1065.74 333.565C1046.02 317.519 1038.94 304.262 1044.69 294.165C1051.23 282.686 1074.23 274.999 1113.04 271.317L1115.24 271.105C1115.49 271.08 1115.73 271.033 1115.96 270.973C1123.91 275.656 1133.22 279.85 1133.28 279.877C1133.2 279.973 1118.6 298.151 1122.49 300.584C1124.25 301.689 1153.51 296.169 1155.96 295.692C1158.4 295.216 1176.06 312.991 1180.58 310.192C1185.08 307.4 1188.03 287.363 1188.04 287.279C1188.12 287.262 1219.07 280.223 1217.76 276.103C1216 270.565 1186.45 267.108 1185.25 267.666C1184.47 268.028 1184.2 243.166 1180.69 242.688C1173.35 241.686 1151.59 261.94 1151.52 262.002C1151.52 262.002 1106.14 255.692 1104.93 260.816C1104.55 262.428 1106.65 264.648 1109.85 267.006C1092.53 268.685 1049.18 273.597 1038.4 292.517C1031.7 304.281 1039.15 319.076 1060.56 336.496C1097.09 366.227 1157.2 386.905 1208.18 395.874C1280.3 449.878 1412.33 442.614 1440 440.411V473H0V0H1440V430.677ZM1217.9 411.153C1217.56 411.135 1217.22 411.184 1216.91 411.309C1216.11 411.629 1215.84 412.329 1216.31 412.874C1234.04 433.317 1280.4 438.449 1282.37 438.657C1283.19 438.748 1284.15 438.329 1284.29 437.703C1284.44 437.079 1283.81 436.494 1282.89 436.396C1282.41 436.347 1236.14 431.216 1219.22 411.713C1218.93 411.379 1218.43 411.182 1217.9 411.153ZM1345.69 393.091C1341.73 392.683 1330.88 403.865 1330.88 403.865C1330.79 403.856 1306.49 401.287 1306.04 404.029C1305.54 407.088 1321.84 413.688 1321.84 413.688C1321.84 413.688 1314.7 423.658 1316.86 424.89C1317.84 425.447 1333.2 422.012 1334.49 421.716C1335.77 421.42 1345.83 430.578 1348.13 429.012C1350.42 427.449 1351.25 416.742 1351.25 416.692C1351.25 416.692 1367.5 412.412 1366.65 410.239C1365.51 407.323 1349.66 405.986 1349.04 406.304C1348.64 406.508 1347.57 393.286 1345.69 393.091ZM1099.27 401.202C1099.06 401.191 1098.84 401.206 1098.62 401.253C1097.74 401.445 1097.25 402.086 1097.53 402.688L1101.1 410.313C1101.39 410.918 1102.34 411.247 1103.22 411.057C1104.11 410.864 1104.6 410.223 1104.32 409.621L1100.74 401.996C1100.53 401.539 1099.93 401.238 1099.27 401.202ZM1101.31 378.206C1101.31 378.206 1089.4 363.557 1085.92 364.996C1082.05 366.597 1084.31 379.317 1084.32 379.375C1084.23 379.389 1068.32 381.659 1068.21 383.568C1068.16 384.435 1081.58 390.564 1082.71 391.072C1083.84 391.58 1079.32 402.577 1082.55 402.85C1085.78 403.122 1098.83 396.979 1098.83 396.979C1098.86 396.992 1113.77 403.064 1115.78 401.279C1118.49 398.881 1110.34 389.568 1109.59 389.432C1109.11 389.341 1123.87 380.673 1122.95 379.544C1121 377.178 1101.37 378.203 1101.31 378.206ZM1193.36 359.585C1203.01 350.394 1237.55 351.647 1263.76 358.584C1287.14 364.773 1300.11 373.775 1298.45 382.662C1297.37 388.4 1291.22 392.419 1280.14 394.613C1271.49 396.326 1260.2 396.793 1247.21 396.095C1236.51 395.52 1224.65 394.155 1212.18 392.044C1211.48 391.516 1210.8 390.982 1210.12 390.441C1192.84 376.713 1186.89 365.754 1193.36 359.585ZM1076.11 390.907L1064.58 392.215C1063.67 392.321 1063.05 392.909 1063.2 393.531C1063.35 394.156 1064.21 394.57 1065.14 394.472L1076.67 393.164C1077.58 393.059 1078.2 392.469 1078.05 391.847C1077.92 391.318 1077.27 390.936 1076.52 390.896C1076.38 390.888 1076.25 390.892 1076.11 390.907ZM1123.27 390.38C1122.36 390.331 1121.55 390.786 1121.46 391.408C1121.37 392.035 1122.05 392.596 1122.98 392.657L1144.74 394.103C1145.59 394.155 1146.49 393.703 1146.58 393.074C1146.67 392.447 1145.99 391.886 1145.06 391.825C1144.98 391.82 1123.3 390.382 1123.27 390.38ZM1232.79 341.761C1231.86 341.758 1231.1 342.265 1231.09 342.896C1231.08 343.53 1231.91 344.061 1232.77 344.049C1233.17 344.05 1271.37 344.405 1297.41 361.034C1322.58 377.109 1311.25 386.474 1310.74 386.875C1310.13 387.349 1310.2 388.067 1310.9 388.485C1311.59 388.901 1312.65 388.856 1313.28 388.383C1313.87 387.928 1327.42 377.058 1299.73 359.371C1277.89 345.426 1248.65 342.523 1237.41 341.919C1234.75 341.777 1233.1 341.764 1232.79 341.761ZM1304.46 354.969C1303.89 354.938 1303.3 355.109 1302.94 355.455C1302.41 355.973 1302.6 356.686 1303.36 357.048C1324.59 367.092 1324.02 381.552 1324.01 381.708C1323.97 382.338 1324.64 382.84 1325.62 382.897C1326.56 382.923 1327.34 382.436 1327.38 381.804C1327.42 381.157 1328.1 365.962 1305.29 355.171C1305.04 355.052 1304.75 354.984 1304.46 354.969ZM1057.83 363.191C1057.31 363.164 1056.79 363.297 1056.42 363.584C1055.81 364.06 1055.89 364.783 1056.59 365.195L1076.73 377.013C1077.43 377.427 1078.5 377.376 1079.11 376.896C1079.72 376.421 1079.64 375.697 1078.94 375.285L1058.8 363.468C1058.52 363.3 1058.18 363.21 1057.83 363.191ZM1068.36 321.774C1068.15 321.763 1067.93 321.778 1067.72 321.822C1066.83 322.01 1066.34 322.651 1066.61 323.253C1078.34 348.821 1132.97 368.06 1135.29 368.868C1136.11 369.15 1137.14 368.936 1137.56 368.372C1137.99 367.81 1137.66 367.121 1136.83 366.832C1136.27 366.639 1081.14 347.222 1069.83 322.575C1069.62 322.116 1069.02 321.81 1068.36 321.774ZM1151.76 302.995C1150.97 302.952 1150.21 303.3 1150 303.844L1140.13 329.19C1139.9 329.801 1140.43 330.428 1141.33 330.588C1142.22 330.743 1143.16 330.388 1143.4 329.773L1153.26 304.427C1153.5 303.817 1152.96 303.19 1152.06 303.029C1151.96 303.013 1151.86 303.001 1151.76 302.995ZM1100.3 285.929C1099.88 285.951 1060.17 288.305 1059.04 308.843C1059 309.474 1059.7 310 1060.66 310.029C1061.59 310.053 1062.37 309.559 1062.41 308.93C1063.43 290.424 1100.19 288.228 1100.56 288.21C1101.49 288.159 1102.18 287.609 1102.11 286.979C1102.04 286.412 1101.38 285.973 1100.57 285.93C1100.48 285.925 1100.39 285.924 1100.3 285.929ZM1198.89 292.314C1198.1 292.272 1197.35 292.615 1197.14 293.152C1196.89 293.759 1197.42 294.391 1198.32 294.558L1254.35 304.998C1255.24 305.165 1256.18 304.808 1256.42 304.198C1256.67 303.591 1256.14 302.96 1255.24 302.793L1199.21 292.352C1199.11 292.333 1199 292.32 1198.89 292.314ZM1095.31 250.962C1089.19 250.633 1060.14 251.974 1040.2 264.308C1027.7 272.037 1021.24 282.546 1021 295.542C1020.99 296.173 1021.66 296.711 1022.67 296.7C1023.6 296.707 1024.36 296.201 1024.37 295.57C1024.6 283.233 1030.69 273.284 1042.47 265.998C1061.62 254.154 1090.21 252.982 1095.04 253.241C1095.97 253.291 1096.78 252.822 1096.86 252.191C1096.93 251.562 1096.24 251.012 1095.31 250.962ZM1211.53 239.863C1210.95 239.833 1210.36 240.005 1210.01 240.351L1190.76 259.136C1190.22 259.654 1190.41 260.367 1191.18 260.727C1191.94 261.092 1192.99 260.961 1193.52 260.44L1212.78 241.655C1213.31 241.137 1213.12 240.423 1212.35 240.064C1212.1 239.944 1211.81 239.879 1211.53 239.863ZM1132.68 237.004C1132.39 236.988 1132.09 237.023 1131.81 237.114C1130.97 237.389 1130.62 238.071 1131.03 238.64L1144.28 257.244C1144.68 257.815 1145.7 258.051 1146.53 257.777C1147.37 257.502 1147.72 256.82 1147.32 256.252L1134.06 237.646C1133.79 237.267 1133.25 237.035 1132.68 237.004Z" fill="#80191B"/>
<path d="M159.99 441.15C154.481 445.182 154.721 408.799 151.699 399.84C151.829 385.22 115.878 391.173 109.235 384.289C157.705 375.607 150.057 384.288 157.359 330.038C159.083 324.084 159.442 339.806 162.573 357.892C163.47 362.96 163.846 369.229 165.201 374.784C177.25 381.44 193.302 380.389 206.758 384.313C196.642 388.922 180.009 389.354 167.841 392.596C160.924 400.265 160.348 429.887 159.99 441.15C174.504 387.091 152.828 399.21 207.131 388.941C221.481 375.844 173.835 377.351 168.004 372.897C166.462 362.323 161.431 326.997 161.58 328.121C150.846 311.707 151.143 364.513 147.96 372.88C135.524 376.23 121.341 377.642 107.784 380.936C98.2075 394.576 140.393 391.992 147.546 396.287C151.599 404.608 150.665 453.276 159.99 441.15Z" fill="white"/>
<path d="M125.568 362.107C123.725 364.134 124.726 359.347 124.518 358.234C124.086 342.641 123.186 339.241 108.817 338.328C113.315 336.481 121.138 338.408 122.797 333.476C123.748 326.817 124.356 322.585 124.718 320.017V320.02L124.716 320.019C126.015 335.72 126.692 336.881 140.618 338.331C140.587 338.331 140.571 338.314 140.612 338.309C125.765 337.774 124.105 347.536 125.568 362.107C127.821 356.614 128.949 350.807 129.781 344.135L129.774 344.145C153.388 341.445 153.291 335.182 129.773 332.5C129.776 332.5 129.778 332.504 129.778 332.507C127.804 309.44 122.654 301.197 119.664 332.504L119.666 332.498C96.5691 335.104 95.6587 341.378 119.664 344.15C119.664 344.15 119.657 344.145 119.658 344.141C120.923 348.834 121.163 365.889 125.568 362.107Z" fill="white"/>
<path d="M194.019 448.551C192.204 450.475 193.186 445.649 192.936 444.558C192.839 430.825 190.519 425.5 177.534 424.959C177.579 424.96 177.573 424.984 177.537 424.982C181.817 423.337 189.165 425.305 190.849 420.688C191.52 415.356 191.936 412.049 192.472 407.785H192.471V407.788L192.469 407.786C193.885 422.73 194.81 424.117 208.032 425.713C207.995 425.713 207.996 425.691 208.035 425.689C191.941 425.807 193.226 433.073 194.019 448.551C196.094 443.185 197.158 437.63 197.849 431.153C197.851 431.155 197.848 431.16 197.846 431.161C221.335 429.001 220.152 422.725 197.666 419.733C195.428 397.693 190.209 388.562 187.732 419.52L187.733 419.515C164.361 421.788 164.808 427.686 187.914 430.957L187.906 430.947C189.526 436.269 189.259 451.169 194.019 448.551Z" fill="white"/>
<path d="M183.608 347.962C176.03 343.424 176.321 361.005 183.608 359.673C190.897 360.997 191.183 343.424 183.608 347.962C186.057 349.844 187.405 355.872 183.608 355.967C179.803 355.869 181.166 349.849 183.608 347.962Z" fill="white"/>
<path d="M190.11 329.238C182.359 324.777 187.49 343.608 193.549 334.489C196.534 330.004 188.997 324.706 190.669 331.345C191.037 331.861 190.816 333.119 190.11 333.016C188.75 332.445 189.47 331.19 190.11 329.238Z" fill="white"/>
<path d="M202.207 360.119C199.767 356.638 196.974 362.55 198.77 365.374C201.833 371.184 208.815 364.633 205.267 359.891C200.854 356.475 203.922 363.315 202.207 363.899C200.846 363.325 201.565 362.072 202.207 360.119Z" fill="white"/>
<path d="M131.222 405.168C123.645 400.63 123.935 418.212 131.222 416.88C138.512 418.202 138.796 400.628 131.222 405.168C133.671 407.051 135.019 413.079 131.222 413.173C127.415 413.074 128.779 407.054 131.222 405.168Z" fill="white"/>
<path d="M138.587 423.137C136.148 419.657 133.353 425.568 135.15 428.392C138.213 434.203 145.194 427.652 141.647 422.909C137.234 419.494 140.302 426.333 138.587 426.918C137.225 426.345 137.945 425.092 138.587 423.137Z" fill="white"/>
</svg>
