<svg width="29" height="34" viewBox="0 0 29 34" fill="none" xmlns="http://www.w3.org/2000/svg">
<path d="M11.2778 30.7619H17.7222C17.7222 32.5429 16.2722 34 14.5 34C12.7278 34 11.2778 32.5429 11.2778 30.7619ZM29 27.5238V29.1429H0V27.5238L3.22222 24.2857V14.5714C3.22222 9.55238 6.44445 5.18095 11.2778 3.72381V3.2381C11.2778 1.45714 12.7278 0 14.5 0C16.2722 0 17.7222 1.45714 17.7222 3.2381V3.72381C22.5556 5.18095 25.7778 9.55238 25.7778 14.5714V24.2857L29 27.5238ZM22.5556 14.5714C22.5556 10.0381 19.0111 6.47619 14.5 6.47619C9.98889 6.47619 6.44444 10.0381 6.44444 14.5714V25.9048H22.5556V14.5714Z" fill="black"/>
</svg>
