<svg width="33" height="33" viewBox="0 0 33 33" fill="none" xmlns="http://www.w3.org/2000/svg">
<path d="M29.3333 29.3333H3.66667V3.66667H29.3333M29.3333 0H3.66667C2.69421 0 1.76157 0.386308 1.07394 1.07394C0.386308 1.76157 0 2.69421 0 3.66667V29.3333C0 30.3058 0.386308 31.2384 1.07394 31.9261C1.76157 32.6137 2.69421 33 3.66667 33H29.3333C30.3058 33 31.2384 32.6137 31.9261 31.9261C32.6137 31.2384 33 30.3058 33 29.3333V3.66667C33 2.69421 32.6137 1.76157 31.9261 1.07394C31.2384 0.386308 30.3058 0 29.3333 0ZM24.75 24.2917C24.75 21.5417 19.25 20.1667 16.5 20.1667C13.75 20.1667 8.25 21.5417 8.25 24.2917V25.6667H24.75M16.5 16.9583C17.594 16.9583 18.6432 16.5237 19.4168 15.7501C20.1904 14.9766 20.625 13.9274 20.625 12.8333C20.625 11.7393 20.1904 10.6901 19.4168 9.91652C18.6432 9.14293 17.594 8.70833 16.5 8.70833C15.406 8.70833 14.3568 9.14293 13.5832 9.91652C12.8096 10.6901 12.375 11.7393 12.375 12.8333C12.375 13.9274 12.8096 14.9766 13.5832 15.7501C14.3568 16.5237 15.406 16.9583 16.5 16.9583Z" fill="black"/>
</svg>
