<svg width="229" height="218" viewBox="0 0 229 218" fill="none" xmlns="http://www.w3.org/2000/svg">
<path d="M91.6789 42.2572C91.1598 42.2572 90.6327 42.1637 90.1192 41.9667L2.7922 8.41522C0.548123 7.55329 -0.571477 5.03592 0.290988 2.79289C1.1529 0.547069 3.66851 -0.571942 5.91314 0.291663L93.2401 33.8432C95.4836 34.7051 96.6038 37.2225 95.7413 39.4655C95.0769 41.1955 93.4284 42.2572 91.6789 42.2572Z" fill="white"/>
<path d="M87.7361 72.8458C87.6638 72.8453 8.29426 71.5504 8.29426 71.5504C5.89049 71.5115 3.97477 69.5317 4.01427 67.1289C4.05267 64.7501 5.994 62.8477 8.36327 62.8477C8.43561 62.8482 87.8057 64.143 87.8057 64.143C90.2083 64.1819 92.1243 66.1618 92.0854 68.5645C92.047 70.9439 90.1054 72.8458 87.7361 72.8458Z" fill="white"/>
<path d="M101.887 26.9555C101.433 26.9555 100.973 26.8375 100.554 26.5882C97.717 24.9 95.4345 22.3938 93.2266 19.9699C92.2401 18.8865 91.3076 17.8637 90.3711 16.9645C88.9745 15.6235 87.4014 14.3843 85.7366 13.0716C83.0118 10.9254 80.1946 8.7063 78.0017 5.87343C77.1187 4.73272 77.3279 3.09231 78.4674 2.21034C79.6087 1.32893 81.2485 1.53539 82.1304 2.67611C83.9304 5.0015 86.3777 6.92898 88.9678 8.97002C90.6583 10.3022 92.4076 11.6799 93.9885 13.1979C95.0507 14.2179 96.0861 15.3542 97.0871 16.4543C99.0374 18.5955 101.056 20.8101 103.225 22.1011C104.464 22.8378 104.871 24.4404 104.134 25.6801C103.646 26.5003 102.778 26.9555 101.887 26.9555Z" fill="white"/>
<path d="M86.7086 56.8076C85.0571 56.8076 83.2374 56.4721 81.5798 56.166C80.6706 55.998 79.8122 55.8394 79.2223 55.7871C76.808 55.5695 74.2802 55.417 71.7095 55.2623C64.5666 54.8305 57.1799 54.3843 50.6062 52.5452C49.2174 52.1568 48.4067 50.7162 48.7957 49.3273C49.1835 47.9384 50.6225 47.1232 52.0136 47.5172C58.0514 49.206 65.1547 49.635 72.0238 50.0501C74.6474 50.2082 77.2252 50.3645 79.6902 50.5854C80.5215 50.6599 81.4964 50.8403 82.528 51.0306C84.1461 51.3288 86.3584 51.7417 87.4123 51.5347C88.8351 51.2637 90.1972 52.1857 90.4721 53.6019C90.747 55.0169 89.8212 56.3869 88.4051 56.6618C87.872 56.7653 87.3012 56.8076 86.7086 56.8076Z" fill="white"/>
<path d="M154.781 123.91C157.22 123.864 159.204 125.776 159.249 128.178L160.849 213.328C160.893 215.719 159.001 217.696 156.615 217.76C154.177 217.806 152.192 215.894 152.147 213.492L150.548 128.342C150.503 125.951 152.395 123.975 154.781 123.91Z" fill="white"/>
<path d="M119.208 120.142C119.919 120.123 120.644 120.278 121.319 120.628C123.454 121.732 124.29 124.358 123.185 126.492L93.1572 184.552C92.0544 186.687 89.4297 187.527 87.293 186.418C85.158 185.314 84.3227 182.688 85.4267 180.554L115.455 122.494C116.21 121.035 117.674 120.183 119.208 120.142Z" fill="white"/>
<path d="M96.386 97.5572C98.1348 97.5105 99.8111 98.5271 100.522 100.239C101.445 102.458 100.393 105.005 98.1726 105.927L11.7776 141.809C9.55685 142.733 7.01108 141.679 6.09019 139.46C5.16763 137.241 6.21992 134.694 8.44007 133.772L94.8351 97.8905C95.3426 97.6785 95.8679 97.5706 96.386 97.5572Z" fill="white"/>
<path d="M191.083 110.067C192.616 110.026 194.125 110.798 194.956 112.214L228.058 168.58C229.275 170.651 228.581 173.318 226.509 174.535C224.437 175.755 221.769 175.059 220.553 172.986L187.451 116.621C186.234 114.549 186.928 111.882 189 110.665C189.656 110.28 190.372 110.086 191.083 110.067Z" fill="white"/>
<path d="M136.658 127.202C138.099 127.163 139.299 128.301 139.337 129.742C139.493 135.544 138.112 141.305 136.777 146.878C135.447 152.424 134.192 157.661 134.332 162.894C134.371 164.335 133.234 165.535 131.793 165.574C130.351 165.612 129.151 164.476 129.113 163.034C128.953 157.114 130.349 151.292 131.699 145.661C133.014 140.177 134.255 134.996 134.117 129.883C134.078 128.44 135.215 127.241 136.658 127.202Z" fill="white"/>
<path d="M102.184 110.249C102.797 110.232 103.418 110.43 103.925 110.853C105.033 111.776 105.182 113.424 104.259 114.531L102.561 116.571C96.1603 124.27 88.9058 132.996 81.0857 139.484C79.9773 140.405 78.3292 140.252 77.4094 139.141C76.4885 138.032 76.6414 136.386 77.752 135.465C85.1998 129.285 92.2905 120.756 98.5458 113.232L100.249 111.187C100.748 110.587 101.46 110.268 102.184 110.249Z" fill="white"/>
<path d="M88.4557 84.2764C89.8974 84.2374 91.0972 85.3748 91.1356 86.8166C91.174 88.2583 90.0373 89.458 88.5961 89.497C74.5841 89.8731 59.6104 90.9337 44.09 92.6487C42.6544 92.8184 41.3664 91.7728 41.2089 90.3406C41.0504 88.9077 42.0836 87.6173 43.517 87.4593C59.1799 85.7265 74.2995 84.6564 88.4557 84.2764Z" fill="white"/>
<path d="M171.377 122.786C172.44 122.758 173.456 123.386 173.873 124.432C175.607 128.792 177.397 133.098 179.181 137.393C182.988 146.553 186.924 156.025 190.185 165.764C190.644 167.132 189.906 168.612 188.539 169.069C187.169 169.528 185.691 168.79 185.234 167.422C182.031 157.859 178.131 148.473 174.36 139.397C172.565 135.077 170.766 130.747 169.021 126.362C168.489 125.022 169.143 123.504 170.482 122.971C170.776 122.854 171.078 122.794 171.377 122.786Z" fill="white"/>
<path d="M26.0468 49.5675C25.9533 49.5675 25.858 49.5625 25.7629 49.5525C24.8092 49.4495 23.8651 49.3299 22.9259 49.2108C19.9061 48.8274 17.0538 48.4613 14.1659 48.7145C12.7114 48.8269 11.4633 47.7735 11.3398 46.3373C11.2168 44.9012 12.2807 43.6352 13.7168 43.5112C17.1639 43.2135 20.4267 43.6302 23.5839 44.0303C24.4909 44.1449 25.4025 44.2612 26.3234 44.3608C27.7573 44.5155 28.7926 45.8031 28.6385 47.2371C28.4944 48.5759 27.3622 49.5675 26.0468 49.5675Z" fill="white"/>
</svg>
