<svg width="47" height="152" viewBox="0 0 47 152" fill="none" xmlns="http://www.w3.org/2000/svg">
<path d="M21.9894 152C20.2026 152 18.7438 150.568 18.7144 148.78C18.7058 148.292 17.7041 99.7899 0.75761 79.4229C-0.221323 78.2468 -0.254901 76.5505 0.676249 75.3364C16.3367 54.9176 20.1059 3.56192 20.1422 3.04589C20.2623 1.32922 21.6909 0 23.4094 0C25.1578 0.0110226 26.5805 1.36108 26.6802 3.08551C26.7096 3.59215 29.8143 53.9986 46.2985 74.9437C47.2476 76.15 47.2322 77.8528 46.261 79.0412C25.6177 104.292 25.2676 148.292 25.2663 148.733C25.2619 150.53 23.8109 151.987 22.0131 152C22.0053 152 21.9967 152 21.9894 152ZM7.36917 77.2482C15.357 88.0998 19.784 104.188 22.2361 118.355C25.0899 104.866 30.2551 89.2849 39.6046 76.9098C30.9584 64.5404 26.0509 45.3708 23.3264 29.7092C20.5395 45.583 15.6486 65.0404 7.36917 77.2482Z" fill="white"/>
</svg>
